<svg xmlns="http://www.w3.org/2000/svg" xmlns:xlink="http://www.w3.org/1999/xlink" x="0px" y="0px" width="80px" height="16px" viewBox="0 0 80 16">

<!-- Honor -->
<g  transform="translate(-0.5, 0)"><g transform="scale(0.7)">
<rect fill="none" height="24" width="24"></rect>
    <path d="M19,5h-2V3H7v2H5C3.9,5,3,5.9,3,7v1c0,2.55,1.92,4.63,4.39,4.94c0.63,1.5,1.98,2.63,3.61,2.96V19H7v2h10v-2h-4v-3.1 c1.63-0.33,2.98-1.46,3.61-2.96C19.08,12.63,21,10.55,21,8V7C21,5.9,20.1,5,19,5z M5,8V7h2v3.82C5.84,10.4,5,9.3,5,8z M12,14 c-1.65,0-3-1.35-3-3V5h6v6C15,12.65,13.65,14,12,14z M19,8c0,1.3-0.84,2.4-2,2.82V7h2V8z"></path></g></g>

<!-- Mail -->
<g  transform="translate(15.5, 0)"><g transform="scale(0.7)">
    <path d="M0 0h24v24H0V0z" fill="none"></path>
    <path d="M14 6V4h-4v2h4zM4 8v11h16V8H4zm16-2c1.11 0 2 .89 2 2v11c0 1.11-.89 2-2 2H4c-1.11 0-2-.89-2-2l.01-11c0-1.11.88-2 1.99-2h4V4c0-1.11.89-2 2-2h4c1.11 0 2 .89 2 2v2h4z"></path>
</g></g>

<!-- Home -->
<g transform="translate(31.5, 0)"><g  transform="scale(0.7)">
    <path d="M0 0h24v24H0V0z" fill="none"></path>
    <path d="M12 5.69l5 4.5V18h-2v-6H9v6H7v-7.81l5-4.5M12 3L2 12h3v8h6v-6h2v6h6v-8h3L12 3z"></path>
</g></g>

<!-- Work Experience -->
<g transform="translate(47.5, 0)"><g  transform="scale(0.7)">
	<rect fill="none" height="24" width="24"></rect>
	<g>
	<path d="M19,5v14H5V5H19 M19,3H5C3.9,3,3,3.9,3,5v14c0,1.1,0.9,2,2,2h14c1.1,0,2-0.9,2-2V5C21,3.9,20.1,3,19,3L19,3z"></path>
	</g>
	<path d="M14,17H7v-2h7V17z M17,13H7v-2h10V13z M17,9H7V7h10V9z"></path>
</g></g>

<!-- Education -->
<g  transform="translate(63.5, 0)"><g transform="scale(0.7)">
    <path d="M12 3L1 9l4 2.18v6L12 21l7-3.82v-6l2-1.09V17h2V9L12 3zm6.82 6L12 12.72 5.18 9 12 5.28 18.82 9zM17 15.99l-5 2.73-5-2.73v-3.72L12 15l5-2.73v3.72z"></path>
</g></g>
	

</svg>